<svg width="15" height="13" viewBox="0 0 15 13" fill="none" xmlns="http://www.w3.org/2000/svg">
<path d="M13.99 1.67746C14.2753 2.41346 13.876 2.91746 13.1033 3.41479C12.48 3.81479 11.686 4.24945 10.8447 4.99145C10.0193 5.71879 9.21467 6.59545 8.49933 7.45812C7.88732 8.19872 7.30464 8.96309 6.75267 9.74945C6.47667 10.1435 6.09067 10.7315 6.09067 10.7315C5.95215 10.9454 5.76138 11.1206 5.53637 11.2404C5.31136 11.3602 5.05954 11.4207 4.80467 11.4161C4.54994 11.4146 4.29983 11.348 4.07812 11.2225C3.85641 11.0971 3.67048 10.917 3.538 10.6995C2.872 9.58145 2.35867 9.13945 2.12267 8.98145C1.49133 8.55612 0.75 8.49479 0.75 7.50545C0.75 6.71945 1.41333 6.08279 2.23133 6.08279C2.80933 6.10412 3.346 6.33145 3.822 6.65145C4.126 6.85545 4.448 7.12612 4.78267 7.48145C5.23117 6.86942 5.6976 6.27071 6.18133 5.68612C6.95267 4.75612 7.86333 3.75812 8.84 2.89679C9.8 2.05012 10.91 1.25746 12.0867 0.838789C12.8533 0.565456 13.7053 0.940789 13.99 1.67746Z" stroke="#144149" stroke-width="1.5" stroke-linecap="round" stroke-linejoin="round"/>
</svg>
