<svg width="65" height="77" viewBox="0 0 65 77" fill="none" xmlns="http://www.w3.org/2000/svg">
<path d="M19.3769 18.0987L19.7094 18.3892L49.4104 48.0867C49.7997 48.4756 50.0918 48.9508 50.263 49.4737C50.4342 49.9966 50.4798 50.5526 50.3959 51.0964C50.312 51.6402 50.1011 52.1566 49.7803 52.6036C49.4595 53.0506 49.0378 53.4157 48.5494 53.6692L48.1434 53.8442L11.7959 67.2387C4.96391 69.7587 -1.68959 63.3362 0.385911 56.5147L0.560911 56.0037L13.9519 19.6562C14.1289 19.1748 14.4097 18.7381 14.7742 18.3771C15.1387 18.0161 15.5781 17.7397 16.0613 17.5674C16.5445 17.3951 17.0597 17.3311 17.5703 17.38C18.081 17.4289 18.5747 17.5894 19.0164 17.8502L19.3769 18.0987ZM50.9854 33.3027C54.1739 33.4707 58.5454 34.1427 62.3464 36.4247C63.117 36.8816 63.683 37.6165 63.9281 38.4781C64.1731 39.3398 64.0784 40.2626 63.6635 41.0565C63.2486 41.8504 62.545 42.455 61.6977 42.7458C60.8505 43.0367 59.9239 42.9915 59.1089 42.6197L58.7449 42.4272C56.3579 40.9922 53.3059 40.4322 50.6179 40.2922C49.5103 40.231 48.4 40.2357 47.2929 40.3062L46.1869 40.4147C45.2739 40.5326 44.3512 40.2859 43.6187 39.7282C42.8863 39.1706 42.403 38.3468 42.2737 37.4353C42.1443 36.5238 42.3793 35.5981 42.9277 34.8587C43.476 34.1192 44.2937 33.6256 45.2034 33.4847C47.1203 33.2374 49.0566 33.1753 50.9854 33.2992M58.0729 23.5482C58.9647 23.5501 59.8221 23.8923 60.4701 24.505C61.1181 25.1177 61.5078 25.9546 61.5597 26.8449C61.6115 27.7351 61.3215 28.6116 60.749 29.2953C60.1764 29.979 59.3644 30.4184 58.4789 30.5237L58.0729 30.5482H55.5949C54.7031 30.5464 53.8457 30.2042 53.1977 29.5915C52.5497 28.9788 52.16 28.1419 52.1082 27.2516C52.0563 26.3613 52.3463 25.4848 52.9189 24.8011C53.4914 24.1174 54.3034 23.6781 55.1889 23.5727L55.5949 23.5482H58.0729ZM46.9359 20.8637C47.5385 21.4664 47.9005 22.2683 47.954 23.1188C48.0075 23.9694 47.7488 24.8103 47.2264 25.4837L46.9359 25.8127L43.2224 29.5262C42.5926 30.1539 41.7474 30.5184 40.8586 30.5455C39.9697 30.5727 39.1039 30.2605 38.4369 29.6724C37.77 29.0842 37.3518 28.2643 37.2675 27.3791C37.1832 26.4938 37.439 25.6097 37.9829 24.9062L38.2734 24.5772L41.9834 20.8672C42.3085 20.5418 42.6945 20.2837 43.1194 20.1075C43.5443 19.9314 43.9997 19.8407 44.4597 19.8407C44.9196 19.8407 45.3751 19.9314 45.7999 20.1075C46.2248 20.2837 46.6109 20.5383 46.9359 20.8637ZM37.8814 2.43623C39.4494 7.14723 38.6094 12.3062 37.6294 15.9112C37.0428 18.1595 36.2338 20.3438 35.2144 22.4317C34.7999 23.2625 34.0724 23.8946 33.1919 24.189C32.3114 24.4834 31.3499 24.4159 30.5192 24.0015C29.6884 23.587 29.0563 22.8595 28.7619 21.979C28.4675 21.0984 28.5349 20.137 28.9494 19.3062C29.7638 17.6293 30.4086 15.8753 30.8744 14.0702C31.6689 11.1582 32.0679 7.99773 31.4554 5.40773L31.2419 4.65173C31.0894 4.21402 31.0253 3.75037 31.0534 3.28769C31.0815 2.82502 31.2013 2.37254 31.4057 1.95652C31.6101 1.5405 31.8951 1.16922 32.2442 0.864249C32.5933 0.559276 32.9994 0.326678 33.4391 0.179959C33.8788 0.0332393 34.3433 -0.0246796 34.8055 0.00956446C35.2678 0.0438085 35.7187 0.169533 36.1319 0.37944C36.5452 0.589347 36.9127 0.879256 37.213 1.23234C37.5133 1.58541 37.7405 1.99463 37.8814 2.43623ZM56.8339 10.9692C57.4901 11.6256 57.8587 12.5157 57.8587 13.4437C57.8587 14.3718 57.4901 15.2619 56.8339 15.9182L54.3594 18.3927C54.0365 18.727 53.6503 18.9937 53.2233 19.1771C52.7963 19.3605 52.337 19.4571 51.8723 19.4611C51.4076 19.4651 50.9467 19.3766 50.5166 19.2006C50.0864 19.0246 49.6957 18.7647 49.367 18.4361C49.0384 18.1075 48.7785 17.7167 48.6025 17.2866C48.4265 16.8564 48.338 16.3956 48.342 15.9308C48.3461 15.4661 48.4426 15.0068 48.6261 14.5798C48.8095 14.1528 49.0761 13.7666 49.4104 13.4437L51.8849 10.9692C52.5413 10.3131 53.4313 9.94448 54.3594 9.94448C55.2875 9.94448 56.1776 10.3131 56.8339 10.9692Z" fill="#FF9959"/>
</svg>
