<svg width="24" height="24" viewBox="0 0 24 24" fill="none" xmlns="http://www.w3.org/2000/svg">
<path d="M13.7922 6.33447C13.7922 5.99683 13.9691 5.69152 14.1736 5.42236C14.3838 5.14653 14.5056 4.81935 14.5056 4.46839C14.5056 3.48304 13.5478 2.68506 12.3656 2.68506C11.1833 2.68506 10.2256 3.48399 10.2256 4.46839C10.2256 4.81935 10.3473 5.14653 10.5575 5.42236C10.762 5.69152 10.9389 5.99683 10.9389 6.33447C10.9393 6.41603 10.9233 6.49683 10.8919 6.57209C10.8605 6.64735 10.8143 6.71553 10.756 6.77257C10.6977 6.82962 10.6285 6.87437 10.5526 6.90417C10.4767 6.93397 10.3956 6.9482 10.314 6.94604C8.99071 6.90792 7.66966 6.81272 6.35455 6.6607C6.53146 8.19485 6.63323 9.75181 6.65415 11.3278C6.65503 11.4105 6.63948 11.4925 6.6084 11.5691C6.57733 11.6457 6.53134 11.7153 6.47311 11.774C6.41488 11.8326 6.34558 11.8792 6.26922 11.9108C6.19286 11.9425 6.11098 11.9586 6.02832 11.9584C5.69068 11.9584 5.38537 11.7815 5.1162 11.577C4.84359 11.3641 4.50816 11.2473 4.16224 11.2451C3.17689 11.2451 2.37891 12.2028 2.37891 13.3851C2.37891 14.5673 3.17784 15.5251 4.16224 15.5251C4.5132 15.5251 4.84038 15.4033 5.1162 15.1931C5.38537 14.9886 5.69068 14.8117 6.02832 14.8117C6.32316 14.8117 6.55619 15.059 6.53431 15.3539C6.41601 16.9665 6.21218 18.5717 5.9237 20.1627C7.36749 20.3434 8.8322 20.4566 10.314 20.4994C10.3956 20.5015 10.4767 20.4873 10.5526 20.4575C10.6285 20.4277 10.6977 20.383 10.756 20.3259C10.8143 20.2689 10.8605 20.2007 10.8919 20.1254C10.9233 20.0502 10.9393 19.9694 10.9389 19.8878C10.9389 19.5502 10.762 19.2449 10.5575 18.9757C10.3446 18.7031 10.2279 18.3676 10.2256 18.0217C10.2256 17.0373 11.1843 16.2384 12.3656 16.2384C13.5478 16.2384 14.5056 17.0373 14.5056 18.0217C14.5056 18.3727 14.3838 18.6999 14.1736 18.9757C13.9691 19.2449 13.7932 19.5502 13.7932 19.8878C13.7932 20.2045 14.0567 20.4575 14.3734 20.4394C16.1039 20.3377 17.8272 20.1376 19.5351 19.8403C19.7935 18.3548 19.9782 16.8575 20.0886 15.3539C20.0936 15.2844 20.0841 15.2146 20.0609 15.1489C20.0376 15.0832 20.0011 15.023 19.9535 14.9721C19.9059 14.9212 19.8483 14.8807 19.7843 14.8531C19.7203 14.8255 19.6513 14.8114 19.5817 14.8117C19.244 14.8117 18.9387 14.9886 18.6695 15.1931C18.3937 15.4033 18.0665 15.5251 17.7156 15.5251C16.7312 15.5251 15.9322 14.5673 15.9322 13.3851C15.9322 12.2028 16.7312 11.2451 17.7156 11.2451C18.0675 11.2451 18.3937 11.3668 18.6695 11.577C18.9387 11.7815 19.244 11.9584 19.5826 11.9584C19.6653 11.9586 19.7472 11.9425 19.8235 11.9108C19.8999 11.8792 19.9692 11.8326 20.0274 11.774C20.0856 11.7153 20.1316 11.6457 20.1627 11.5691C20.1938 11.4925 20.2093 11.4105 20.2084 11.3278C20.1856 9.62328 20.0681 7.92135 19.8565 6.22985C18.0627 6.55513 16.2328 6.77579 14.3724 6.88517C14.2975 6.88932 14.2226 6.87811 14.1522 6.85223C14.0819 6.82634 14.0175 6.78634 13.9632 6.73467C13.9088 6.683 13.8656 6.62075 13.8362 6.55177C13.8068 6.48278 13.7919 6.40946 13.7922 6.33447Z" fill="#01141F" stroke="#01141F" stroke-width="1.48373" stroke-linecap="round" stroke-linejoin="round"/>
</svg>
