<svg width="18" height="19" viewBox="0 0 18 19" fill="none" xmlns="http://www.w3.org/2000/svg">
<path d="M8.12915 1.44824H8.13306C8.30186 1.44761 8.4691 1.48137 8.62427 1.54785C8.77943 1.61438 8.91944 1.71227 9.0354 1.83496L9.03735 1.83691C9.27754 2.09005 9.39914 2.41468 9.38306 2.76562L9.24927 5.50488L9.19067 6.70215H15.7356C15.801 6.70209 15.8657 6.71983 15.9221 6.75293C16.4928 7.08785 16.8186 7.67143 16.8186 8.24512C16.8185 8.62463 16.6938 8.98961 16.468 9.28809L16.1184 9.75L16.2844 10.3047C16.3314 10.4612 16.357 10.632 16.3606 10.8135C16.3585 11.1895 16.2348 11.5507 16.011 11.8467L15.6614 12.3086L15.8274 12.8643C15.8752 13.0237 15.8996 13.1892 15.8997 13.3604C15.8997 13.7401 15.775 14.1057 15.5491 14.4043L15.1995 14.8662L15.3665 15.4209C15.4143 15.5804 15.4387 15.7467 15.4387 15.918C15.4385 16.6102 15.0274 17.2335 14.387 17.5068L14.3801 17.5098C14.3448 17.5251 14.2993 17.5361 14.2434 17.5361H4.85669V9.3125L6.73657 2.50781L6.73755 2.50684C6.90857 1.88605 7.48276 1.44824 8.12915 1.44824Z" stroke="#242424" stroke-width="2.28267"/>
</svg>
