<svg width="24" height="24" viewBox="0 0 24 24" fill="none" xmlns="http://www.w3.org/2000/svg">
<path d="M13.7922 6.33398C13.7922 5.99634 13.9691 5.69103 14.1736 5.42187C14.3838 5.14605 14.5056 4.81886 14.5056 4.4679C14.5056 3.48255 13.5478 2.68457 12.3656 2.68457C11.1833 2.68457 10.2256 3.4835 10.2256 4.4679C10.2256 4.81886 10.3473 5.14605 10.5575 5.42187C10.762 5.69103 10.9389 5.99634 10.9389 6.33398C10.9393 6.41554 10.9233 6.49635 10.8919 6.57161C10.8605 6.64686 10.8143 6.71504 10.756 6.77209C10.6977 6.82913 10.6285 6.87388 10.5526 6.90368C10.4767 6.93348 10.3956 6.94772 10.314 6.94555C8.99071 6.90743 7.66966 6.81223 6.35455 6.66021C6.53146 8.19436 6.63323 9.75133 6.65415 11.3273C6.65503 11.41 6.63948 11.492 6.6084 11.5686C6.57733 11.6452 6.53134 11.7148 6.47311 11.7735C6.41488 11.8322 6.34558 11.8787 6.26922 11.9103C6.19286 11.942 6.11098 11.9582 6.02832 11.9579C5.69068 11.9579 5.38537 11.781 5.1162 11.5765C4.84359 11.3636 4.50816 11.2469 4.16224 11.2446C3.17689 11.2446 2.37891 12.2023 2.37891 13.3846C2.37891 14.5668 3.17784 15.5246 4.16224 15.5246C4.5132 15.5246 4.84038 15.4028 5.1162 15.1926C5.38537 14.9881 5.69068 14.8112 6.02832 14.8112C6.32316 14.8112 6.55619 15.0585 6.53431 15.3534C6.41601 16.966 6.21218 18.5712 5.9237 20.1622C7.36749 20.3429 8.8322 20.4561 10.314 20.4989C10.3956 20.501 10.4767 20.4868 10.5526 20.457C10.6285 20.4272 10.6977 20.3825 10.756 20.3254C10.8143 20.2684 10.8605 20.2002 10.8919 20.1249C10.9233 20.0497 10.9393 19.9689 10.9389 19.8873C10.9389 19.5497 10.762 19.2444 10.5575 18.9752C10.3446 18.7026 10.2279 18.3672 10.2256 18.0212C10.2256 17.0368 11.1843 16.2379 12.3656 16.2379C13.5478 16.2379 14.5056 17.0368 14.5056 18.0212C14.5056 18.3722 14.3838 18.6994 14.1736 18.9752C13.9691 19.2444 13.7932 19.5497 13.7932 19.8873C13.7932 20.204 14.0567 20.457 14.3734 20.439C16.1039 20.3372 17.8272 20.1371 19.5351 19.8398C19.7935 18.3543 19.9782 16.857 20.0886 15.3534C20.0936 15.2839 20.0841 15.2141 20.0609 15.1484C20.0376 15.0827 20.0011 15.0225 19.9535 14.9716C19.9059 14.9207 19.8483 14.8802 19.7843 14.8526C19.7203 14.825 19.6513 14.8109 19.5817 14.8112C19.244 14.8112 18.9387 14.9881 18.6695 15.1926C18.3937 15.4028 18.0665 15.5246 17.7156 15.5246C16.7312 15.5246 15.9322 14.5668 15.9322 13.3846C15.9322 12.2023 16.7312 11.2446 17.7156 11.2446C18.0675 11.2446 18.3937 11.3663 18.6695 11.5765C18.9387 11.781 19.244 11.9579 19.5826 11.9579C19.6653 11.9582 19.7472 11.942 19.8235 11.9103C19.8999 11.8787 19.9692 11.8322 20.0274 11.7735C20.0856 11.7148 20.1316 11.6452 20.1627 11.5686C20.1938 11.492 20.2093 11.41 20.2084 11.3273C20.1856 9.6228 20.0681 7.92086 19.8565 6.22936C18.0627 6.55464 16.2328 6.7753 14.3724 6.88468C14.2975 6.88883 14.2226 6.87762 14.1522 6.85174C14.0819 6.82586 14.0175 6.78585 13.9632 6.73418C13.9088 6.68251 13.8656 6.62026 13.8362 6.55128C13.8068 6.48229 13.7919 6.40897 13.7922 6.33398Z" fill="#2C8C9D" stroke="#2C8C9D" stroke-width="1.48373" stroke-linecap="round" stroke-linejoin="round"/>
</svg>
