<svg width="27" height="27" viewBox="0 0 27 27" fill="none" xmlns="http://www.w3.org/2000/svg">
<rect x="0.599609" y="0.800049" width="25.6" height="25.6" rx="12.8" fill="white" fill-opacity="0.5"/>
<path d="M5.89966 18.3501V11.6001C5.89966 10.6336 6.68316 9.8501 7.64966 9.8501C8.20048 9.8501 8.71916 9.59076 9.04966 9.1501L10.5947 7.0901C10.708 6.93901 10.8858 6.8501 11.0747 6.8501H15.7247C15.9135 6.8501 16.0913 6.93901 16.2047 7.0901L17.7497 9.1501C18.0802 9.59076 18.5988 9.8501 19.1497 9.8501C20.1162 9.8501 20.8997 10.6336 20.8997 11.6001V18.3501C20.8997 19.4547 20.0042 20.3501 18.8997 20.3501H7.89966C6.79509 20.3501 5.89966 19.4547 5.89966 18.3501Z" stroke="#131927" stroke-width="1.5" stroke-linecap="round" stroke-linejoin="round"/>
<path d="M13.3997 17.3501C15.0565 17.3501 16.3997 16.007 16.3997 14.3501C16.3997 12.6932 15.0565 11.3501 13.3997 11.3501C11.7428 11.3501 10.3997 12.6932 10.3997 14.3501C10.3997 16.007 11.7428 17.3501 13.3997 17.3501Z" stroke="#131927" stroke-width="1.5" stroke-linecap="round" stroke-linejoin="round"/>
</svg>
