<svg width="18" height="18" viewBox="0 0 18 18" fill="none" xmlns="http://www.w3.org/2000/svg">
<path d="M2.25 15.15V2.85C2.25 2.51863 2.51863 2.25 2.85 2.25H15.15C15.4814 2.25 15.75 2.51863 15.75 2.85V15.15C15.75 15.4814 15.4814 15.75 15.15 15.75H2.85C2.51863 15.75 2.25 15.4814 2.25 15.15Z" stroke="white" stroke-width="1.5"/>
<path d="M11.25 6.375C10.7363 5.86125 9.83151 5.50392 9 5.48154M6.75 11.25C7.23336 11.8945 8.13208 12.2621 9 12.2932M9 5.48154C8.01066 5.45492 7.125 5.90249 7.125 7.12501C7.125 9.375 11.25 8.25001 11.25 10.5C11.25 11.7833 10.1521 12.3346 9 12.2932M9 5.48154V4.125M9 12.2932V13.875" stroke="white" stroke-width="1.5" stroke-linecap="round" stroke-linejoin="round"/>
</svg>
