<svg width="18" height="18" viewBox="0 0 18 18" fill="none" xmlns="http://www.w3.org/2000/svg">
<g clip-path="url(#clip0_5883_14884)">
<path d="M8.99981 17.6998C13.8047 17.6998 17.6998 13.8047 17.6998 8.99981C17.6998 4.19493 13.8047 0.299805 8.99981 0.299805C4.19493 0.299805 0.299805 4.19493 0.299805 8.99981C0.299805 13.8047 4.19493 17.6998 8.99981 17.6998Z" fill="#309AAD"/>
<path d="M7.27905 12.6214L5.23905 10.6288C5.19493 10.5859 5.15985 10.5346 5.1359 10.4779C5.11195 10.4212 5.09961 10.3603 5.09961 10.2988C5.09961 10.2373 5.11195 10.1763 5.1359 10.1197C5.15985 10.063 5.19493 10.0117 5.23905 9.96879L5.91555 9.30879C6.00627 9.22088 6.12763 9.17173 6.25395 9.17173C6.38027 9.17173 6.50164 9.22088 6.59235 9.30879L7.80675 10.4959L11.2127 5.31789C11.2829 5.2134 11.3911 5.14033 11.5142 5.11413C11.6374 5.08793 11.7659 5.11065 11.8727 5.17749L12.6779 5.68329C12.7304 5.71562 12.776 5.7582 12.8118 5.80847C12.8477 5.85875 12.873 5.91571 12.8864 5.97598C12.8998 6.03625 12.901 6.09859 12.8899 6.15931C12.8787 6.22004 12.8555 6.27791 12.8216 6.32949L8.78865 12.4627C8.70784 12.5827 8.60169 12.6836 8.47768 12.7582C8.35368 12.8328 8.21482 12.8793 8.0709 12.8944C7.92698 12.9096 7.78149 12.8929 7.64468 12.8458C7.50787 12.7986 7.38306 12.722 7.27905 12.6214Z" fill="white"/>
</g>
<defs>
<clipPath id="clip0_5883_14884">
<rect width="18" height="18" fill="white"/>
</clipPath>
</defs>
</svg>
