<svg width="19" height="20" viewBox="0 0 19 20" fill="none" xmlns="http://www.w3.org/2000/svg">
<path d="M17.4413 10.3058C17.4413 9.64366 17.3864 9.16048 17.2678 8.65942H9.55273V11.6479H14.0813C13.99 12.3906 13.497 13.509 12.4013 14.2606L12.386 14.3607L14.8253 16.2126L14.9943 16.2291C16.5465 14.8243 17.4413 12.7574 17.4413 10.3058" fill="#4285F4"/>
<path d="M9.55165 18.1797C11.7703 18.1797 13.6328 17.4639 14.9932 16.2291L12.4003 14.2606C11.7064 14.7348 10.7751 15.0659 9.55165 15.0659C7.37867 15.0659 5.53438 13.6611 4.87695 11.7195L4.78058 11.7275L2.24411 13.6513L2.21094 13.7416C3.56219 16.3723 6.33779 18.1797 9.55165 18.1797Z" fill="#34A853"/>
<path d="M4.87648 11.7196C4.70301 11.2186 4.60262 10.6817 4.60262 10.127C4.60262 9.57216 4.70301 9.03533 4.86736 8.53426L4.86276 8.42755L2.2945 6.4729L2.21047 6.51207C1.65355 7.6037 1.33398 8.82955 1.33398 10.127C1.33398 11.4244 1.65355 12.6501 2.21047 13.7418L4.87648 11.7196" fill="#FBBC05"/>
<path d="M9.55169 5.18773C11.0947 5.18773 12.1355 5.84091 12.729 6.38675L15.0481 4.16772C13.6238 2.87032 11.7703 2.07397 9.55169 2.07397C6.33781 2.07397 3.5622 3.88138 2.21094 6.51197L4.86783 8.53416C5.5344 6.59253 7.3787 5.18773 9.55169 5.18773" fill="#EB4335"/>
</svg>
