<svg width="24" height="24" viewBox="0 0 24 24" fill="none" xmlns="http://www.w3.org/2000/svg">
<path d="M19.8154 12.9934C19.8154 17.749 16.4865 20.1267 12.5299 21.5059C12.3227 21.5761 12.0977 21.5727 11.8927 21.4963C7.92655 20.1267 4.59766 17.749 4.59766 12.9934V6.33563C4.59766 6.08338 4.69786 5.84147 4.87623 5.6631C5.0546 5.48473 5.29652 5.38452 5.54877 5.38452C7.45099 5.38452 9.82877 4.24319 11.4837 2.7975C11.6852 2.62535 11.9415 2.53076 12.2065 2.53076C12.4716 2.53076 12.7279 2.62535 12.9294 2.7975C14.5938 4.2527 16.9621 5.38452 18.8643 5.38452C19.1166 5.38452 19.3585 5.48473 19.5369 5.6631C19.7152 5.84147 19.8154 6.08338 19.8154 6.33563V12.9934Z" fill="#032F49" stroke="#032F49" stroke-width="1.48373" stroke-linecap="round" stroke-linejoin="round"/>
<path d="M9.35547 12.0424L11.2577 13.9446L15.0621 10.1401" stroke="white" stroke-width="1.48373" stroke-linecap="round" stroke-linejoin="round"/>
</svg>
