<svg width="24" height="24" viewBox="0 0 24 24" fill="none" xmlns="http://www.w3.org/2000/svg">
<path d="M11.5368 3.21238C11.6268 3.17311 11.7239 3.15283 11.8221 3.15283C11.9203 3.15283 12.0174 3.17311 12.1074 3.21238C15.6247 4.74976 18.9797 6.63438 22.1226 8.83821C22.2334 8.91588 22.3198 9.02345 22.3717 9.14836C22.4237 9.27327 22.439 9.41038 22.416 9.54369C22.3929 9.67699 22.3325 9.801 22.2416 9.90125C22.1508 10.0015 22.0333 10.0738 21.9029 10.1098C18.64 11.011 15.4828 12.2583 12.485 13.8306L12.4822 13.8325C12.3737 13.8896 12.2663 13.9457 12.1588 14.0037C12.0553 14.059 11.9399 14.0879 11.8226 14.0879C11.7053 14.0879 11.5898 14.059 11.4864 14.0037C10.2006 13.3175 8.88451 12.6898 7.5421 12.1224V11.9093C7.5421 11.7847 7.60582 11.6735 7.70569 11.6135C9.14127 10.7436 10.6182 9.94371 12.1312 9.21675C12.3017 9.13477 12.4327 8.9884 12.4953 8.80986C12.5579 8.63131 12.547 8.43521 12.465 8.26469C12.3831 8.09417 12.2367 7.9632 12.0582 7.90059C11.8796 7.83798 11.6835 7.84887 11.513 7.93085C9.95866 8.67774 8.44144 9.49951 6.96667 10.3933C6.75686 10.5206 6.57586 10.6901 6.43519 10.8912C6.29453 11.0923 6.19729 11.3205 6.14967 11.5612C4.70513 11.0054 3.23421 10.5207 1.74222 10.1089C1.61182 10.0729 1.49434 10.0005 1.4035 9.9003C1.31266 9.80005 1.2522 9.67604 1.22916 9.54274C1.20613 9.40943 1.22148 9.27232 1.27342 9.14741C1.32536 9.0225 1.41175 8.91493 1.52251 8.83726C4.66516 6.63383 8.01987 4.74953 11.5368 3.21238Z" fill="#309AAD"/>
<path d="M12.8277 15.2617C15.1638 14.0135 17.6033 12.9691 20.1189 12.1401C20.2463 13.485 20.3281 14.8441 20.3614 16.2147C20.3651 16.3583 20.3253 16.4998 20.2472 16.6204C20.1692 16.7411 20.0565 16.8354 19.9239 16.8909C17.2277 18.0169 14.6463 19.3999 12.2151 21.0206C12.098 21.0987 11.9603 21.1404 11.8195 21.1404C11.6787 21.1404 11.541 21.0987 11.4238 21.0206C8.99299 19.4 6.41182 18.017 3.71601 16.8909C3.58342 16.8356 3.47063 16.7415 3.39239 16.621C3.31416 16.5006 3.27413 16.3592 3.27755 16.2156C3.31083 14.8441 3.39263 13.4859 3.52008 12.1392C4.39605 12.4283 5.26061 12.7422 6.11281 13.0808V14.2887C5.90731 14.4071 5.73456 14.5748 5.61021 14.7768C5.48585 14.9788 5.41381 15.2085 5.40059 15.4453C5.38737 15.6821 5.43339 15.9185 5.5345 16.133C5.63561 16.3476 5.7886 16.5335 5.97965 16.6741C5.89405 17.0355 5.76851 17.3902 5.60206 17.7298C6.03196 17.9324 6.45901 18.1426 6.88226 18.3575C7.12083 17.8722 7.29692 17.3587 7.40632 16.8291C7.64684 16.7221 7.85309 16.5507 8.00224 16.3339C8.15139 16.117 8.23762 15.863 8.25141 15.6002C8.26519 15.3373 8.20598 15.0758 8.08033 14.8445C7.95468 14.6132 7.76749 14.4211 7.53947 14.2896V13.6762C8.65047 14.1615 9.74193 14.6904 10.8113 15.2617C11.1215 15.4273 11.4678 15.514 11.8195 15.514C12.1712 15.514 12.5174 15.4273 12.8277 15.2617Z" fill="#309AAD"/>
<path d="M4.65144 19.0558C5.0509 18.6573 5.36762 18.2093 5.60255 17.729C6.0334 17.9325 6.46045 18.1427 6.88369 18.3586C6.57249 18.9907 6.15925 19.5672 5.66057 20.0649C5.52534 20.1909 5.34649 20.2595 5.16169 20.2563C4.97688 20.253 4.80056 20.1781 4.66987 20.0475C4.53917 19.9168 4.46431 19.7404 4.46105 19.5556C4.45779 19.3708 4.52638 19.192 4.65239 19.0568L4.65144 19.0558Z" fill="#309AAD"/>
</svg>
