<svg width="17" height="15" viewBox="0 0 17 15" fill="none" xmlns="http://www.w3.org/2000/svg">
<path d="M15.3271 1.28061C14.9213 0.874618 14.4395 0.552558 13.9092 0.332827C13.3789 0.113096 12.8105 0 12.2365 0C11.6624 0 11.094 0.113096 10.5637 0.332827C10.0334 0.552558 9.55161 0.874618 9.14581 1.28061L8.30364 2.12279L7.46146 1.28061C6.64177 0.460921 5.53003 0.000424873 4.37082 0.000424881C3.21161 0.00042489 2.09987 0.460921 1.28018 1.28061C0.460496 2.1003 8.63681e-09 3.21203 0 4.37124C-8.63681e-09 5.53046 0.460496 6.64219 1.28018 7.46188L2.12236 8.30406L8.30364 14.4853L14.4849 8.30406L15.3271 7.46188C15.7331 7.05608 16.0551 6.57427 16.2749 6.04397C16.4946 5.51367 16.6077 4.94527 16.6077 4.37124C16.6077 3.79722 16.4946 3.22882 16.2749 2.69852C16.0551 2.16822 15.7331 1.68641 15.3271 1.28061Z" fill="#EE443F"/>
</svg>
