<svg width="19" height="18" viewBox="0 0 19 18" fill="none" xmlns="http://www.w3.org/2000/svg">
<g clip-path="url(#clip0_4253_7614)">
<path d="M11.4339 1.04688H7.10397C6.70542 1.04688 6.38232 1.36997 6.38232 1.76852V3.21182C6.38232 3.61038 6.70542 3.93347 7.10397 3.93347H11.4339C11.8324 3.93347 12.1555 3.61038 12.1555 3.21182V1.76852C12.1555 1.36997 11.8324 1.04688 11.4339 1.04688Z" stroke="#131927" stroke-width="1.29897" stroke-linecap="round" stroke-linejoin="round"/>
<path d="M12.1554 2.49023H13.5987C13.9815 2.49023 14.3486 2.6423 14.6193 2.91297C14.8899 3.18364 15.042 3.55075 15.042 3.93353V14.0366C15.042 14.4194 14.8899 14.7865 14.6193 15.0572C14.3486 15.3279 13.9815 15.4799 13.5987 15.4799H4.9389C4.55612 15.4799 4.18901 15.3279 3.91834 15.0572C3.64767 14.7865 3.49561 14.4194 3.49561 14.0366V3.93353C3.49561 3.55075 3.64767 3.18364 3.91834 2.91297C4.18901 2.6423 4.55612 2.49023 4.9389 2.49023H6.3822" stroke="#131927" stroke-width="1.29897" stroke-linecap="round" stroke-linejoin="round"/>
<path d="M7.10303 9.70697L8.54633 11.1503L11.4329 8.26367" stroke="#131927" stroke-width="1.29897" stroke-linecap="round" stroke-linejoin="round"/>
</g>
<defs>
<clipPath id="clip0_4253_7614">
<rect width="17.3196" height="17.3196" fill="white" transform="translate(0.804199 0.0517578)"/>
</clipPath>
</defs>
</svg>
