<svg width="9" height="5" viewBox="0 0 9 5" fill="none" xmlns="http://www.w3.org/2000/svg">
<path d="M8.16688 1.48268C8.36747 1.28029 8.36602 0.953605 8.16363 0.753012C7.96123 0.552419 7.63455 0.553877 7.43396 0.756267L6.23191 1.96909C5.74406 2.46131 5.40832 2.79895 5.12384 3.02742C4.84749 3.24935 4.66999 3.32548 4.51102 3.34575C4.4112 3.35847 4.3102 3.35847 4.21039 3.34575C4.05142 3.32548 3.87391 3.24935 3.59757 3.02742C3.31309 2.79895 2.97734 2.46131 2.4895 1.96909L1.28745 0.756268C1.08685 0.553877 0.760172 0.55242 0.557781 0.753013C0.35539 0.953606 0.353933 1.28029 0.554526 1.48268L1.77823 2.71735C2.23911 3.18238 2.6158 3.56245 2.95142 3.832C3.30044 4.11228 3.65468 4.31518 4.07991 4.36938C4.26636 4.39315 4.45505 4.39315 4.6415 4.36938C5.06672 4.31518 5.42097 4.11228 5.76998 3.83199C6.10561 3.56245 6.48229 3.18239 6.94317 2.71736L8.16688 1.48268Z" fill="#0095FF"/>
</svg>
