<svg width="18" height="20" viewBox="0 0 18 20" fill="none" xmlns="http://www.w3.org/2000/svg">
<path d="M15.1038 0.683594C14.1194 0.683594 13.3205 1.48253 13.3205 2.46693V17.4469C13.3205 18.4313 14.1194 19.2303 15.1038 19.2303H15.8171C16.8015 19.2303 17.6005 18.4313 17.6005 17.4469V2.46693C17.6005 1.48158 16.8015 0.683594 15.8171 0.683594H15.1038ZM6.90047 6.74693C6.90047 5.76158 7.6994 4.96359 8.6838 4.96359H9.39714C10.3825 4.96359 11.1805 5.76253 11.1805 6.74693V17.4469C11.1805 18.4313 10.3815 19.2303 9.39714 19.2303H8.6838C8.21083 19.2303 7.75723 19.0424 7.42279 18.7079C7.08836 18.3735 6.90047 17.9199 6.90047 17.4469V6.74693ZM0.480469 11.0269C0.480469 10.0416 1.2794 9.24359 2.2638 9.24359H2.97714C3.96249 9.24359 4.76047 10.0425 4.76047 11.0269V17.4469C4.76047 18.4313 3.96154 19.2303 2.97714 19.2303H2.2638C1.79083 19.2303 1.33723 19.0424 1.00279 18.7079C0.668355 18.3735 0.480469 17.9199 0.480469 17.4469V11.0269Z" fill="#309AAD"/>
</svg>
