<svg width="19" height="19" viewBox="0 0 19 19" fill="none" xmlns="http://www.w3.org/2000/svg">
<path fill-rule="evenodd" clip-rule="evenodd" d="M5.91768 7.88846C6.82441 7.05392 8.03486 6.5443 9.36434 6.5443C10.6938 6.5443 11.9043 7.05392 12.811 7.88846L15.0444 3.79396C15.4409 3.067 14.9147 2.18066 14.0867 2.18066H11.6748C11.1465 2.18066 10.6598 2.46705 10.4033 2.92882L9.36432 4.79896L8.32535 2.92882C8.06881 2.46705 7.58209 2.18066 7.05385 2.18066H4.64201C3.81395 2.18066 3.28779 3.067 3.68431 3.79396L5.91768 7.88846Z" fill="#FFCD6D"/>
<path d="M14.4553 11.6358C14.4553 14.4475 12.176 16.7267 9.36435 16.7267C6.55272 16.7267 4.27344 14.4475 4.27344 11.6358C4.27344 8.8242 6.55272 6.54492 9.36435 6.54492C12.176 6.54492 14.4553 8.8242 14.4553 11.6358Z" fill="#FEA800"/>
<path fill-rule="evenodd" clip-rule="evenodd" d="M9.36446 13.0907C10.1678 13.0907 10.819 12.4395 10.819 11.6362C10.819 10.8329 10.1678 10.1816 9.36446 10.1816C8.56113 10.1816 7.90991 10.8329 7.90991 11.6362C7.90991 12.4395 8.56113 13.0907 9.36446 13.0907Z" fill="#FFCD6D"/>
</svg>
