<svg width="18" height="20" viewBox="0 0 18 20" fill="none" xmlns="http://www.w3.org/2000/svg">
<path d="M15.1038 0.684082C14.1194 0.684082 13.3205 1.48302 13.3205 2.46742V17.4474C13.3205 18.4318 14.1194 19.2307 15.1038 19.2307H15.8171C16.8015 19.2307 17.6005 18.4318 17.6005 17.4474V2.46742C17.6005 1.48206 16.8015 0.684082 15.8171 0.684082H15.1038ZM6.90047 6.74742C6.90047 5.76206 7.6994 4.96408 8.6838 4.96408H9.39714C10.3825 4.96408 11.1805 5.76302 11.1805 6.74742V17.4474C11.1805 18.4318 10.3815 19.2307 9.39714 19.2307H8.6838C8.21083 19.2307 7.75723 19.0429 7.42279 18.7084C7.08836 18.374 6.90047 17.9204 6.90047 17.4474V6.74742ZM0.480469 11.0274C0.480469 10.0421 1.2794 9.24408 2.2638 9.24408H2.97714C3.96249 9.24408 4.76047 10.043 4.76047 11.0274V17.4474C4.76047 18.4318 3.96154 19.2307 2.97714 19.2307H2.2638C1.79083 19.2307 1.33723 19.0429 1.00279 18.7084C0.668355 18.374 0.480469 17.9204 0.480469 17.4474V11.0274Z" fill="#01141F"/>
</svg>
