<svg width="17" height="16" viewBox="0 0 17 16" fill="none" xmlns="http://www.w3.org/2000/svg">
<path d="M13.8327 8.66664C13.8327 12 11.4993 13.6666 8.72602 14.6333C8.58079 14.6825 8.42304 14.6802 8.27935 14.6266C5.49935 13.6666 3.16602 12 3.16602 8.66664V3.99997C3.16602 3.82316 3.23625 3.65359 3.36128 3.52857C3.4863 3.40355 3.65587 3.33331 3.83268 3.33331C5.16602 3.33331 6.83268 2.53331 7.99268 1.51997C8.13392 1.39931 8.31358 1.33301 8.49935 1.33301C8.68511 1.33301 8.86478 1.39931 9.00602 1.51997C10.1727 2.53997 11.8327 3.33331 13.166 3.33331C13.3428 3.33331 13.5124 3.40355 13.6374 3.52857C13.7624 3.65359 13.8327 3.82316 13.8327 3.99997V8.66664Z" stroke="#EE443F" stroke-width="1.2" stroke-linecap="round" stroke-linejoin="round"/>
<path d="M8.5 5.3335V8.00016" stroke="#EE443F" stroke-width="1.2" stroke-linecap="round" stroke-linejoin="round"/>
<path d="M8.5 10.6665H8.50667" stroke="#EE443F" stroke-width="1.2" stroke-linecap="round" stroke-linejoin="round"/>
</svg>
