<svg width="18" height="18" viewBox="0 0 18 18" fill="none" xmlns="http://www.w3.org/2000/svg">
<g clip-path="url(#clip0_6152_23352)">
<path d="M15.0946 6.83995C15.1331 6.83893 15.1331 6.83893 15.1724 6.83789C15.4412 6.89314 15.579 7.12458 15.7318 7.33214C15.7564 7.36499 15.7811 7.39785 15.8064 7.4317C15.8816 7.53226 15.9562 7.63318 16.0307 7.73424C16.0521 7.76328 16.0735 7.79232 16.0956 7.82225C16.1762 7.93147 16.2566 8.04075 16.3368 8.15022C16.4902 8.35914 16.6466 8.56555 16.8041 8.77135C17.0465 9.08824 17.2845 9.40816 17.5201 9.73013C17.5776 9.80849 17.6352 9.8867 17.6929 9.96487C17.7284 10.0131 17.7639 10.0613 17.7995 10.1095C17.8239 10.1425 17.8239 10.1425 17.8487 10.1761C17.9966 10.3773 18.0281 10.5083 17.9994 10.7577C17.9249 10.8855 17.8544 10.9501 17.7182 11.0038C17.6151 11.0118 17.6151 11.0118 17.4968 11.0106C17.4544 11.0104 17.412 11.0102 17.3684 11.0099C17.3022 11.0091 17.3022 11.0091 17.2348 11.0082C17.1901 11.0078 17.1455 11.0075 17.0995 11.0072C16.9893 11.0064 16.8791 11.0052 16.769 11.0038C16.7692 11.0459 16.7692 11.0459 16.7694 11.0888C16.7733 11.7719 16.7762 12.455 16.7781 13.1381C16.779 13.4684 16.7802 13.7987 16.7822 14.1291C16.784 14.417 16.7851 14.7049 16.7855 14.9928C16.7857 15.1453 16.7863 15.2977 16.7875 15.4502C16.7887 15.5937 16.7891 15.7372 16.7888 15.8807C16.7889 15.9334 16.7892 15.986 16.7899 16.0386C16.7954 16.486 16.7954 16.486 16.6842 16.6244C16.5406 16.7422 16.4389 16.7396 16.2595 16.7399C16.2323 16.7401 16.2052 16.7403 16.1772 16.7404C16.0871 16.7409 15.997 16.7412 15.9069 16.7414C15.8444 16.7416 15.7819 16.7418 15.7193 16.742C15.5881 16.7424 15.4568 16.7426 15.3256 16.7427C15.1575 16.7429 14.9894 16.7437 14.8213 16.7447C14.692 16.7454 14.5628 16.7456 14.4336 16.7456C14.3716 16.7457 14.3096 16.746 14.2477 16.7465C14.1609 16.7471 14.0741 16.747 13.9874 16.7468C13.9618 16.7471 13.9363 16.7474 13.9099 16.7478C13.755 16.7465 13.6541 16.7296 13.5346 16.6288C13.4434 16.476 13.416 16.364 13.4164 16.1869C13.4163 16.1411 13.4161 16.0952 13.416 16.048C13.4164 15.9976 13.4167 15.9473 13.4171 15.8969C13.4172 15.8435 13.4171 15.7901 13.4171 15.7368C13.4171 15.5922 13.4177 15.4477 13.4184 15.3032C13.4191 15.152 13.4191 15.0008 13.4193 14.8497C13.4196 14.5635 13.4205 14.2774 13.4215 13.9913C13.4227 13.6655 13.4233 13.3397 13.4238 13.0139C13.4249 12.3439 13.4268 11.6738 13.4291 11.0038C13.4025 11.0045 13.3759 11.0052 13.3485 11.006C13.2275 11.0089 13.1064 11.0108 12.9853 11.0126C12.9434 11.0137 12.9016 11.0149 12.8585 11.0161C12.47 11.0205 12.47 11.0205 12.3041 10.8631C12.2089 10.7171 12.1856 10.6137 12.1986 10.4413C12.3222 10.1606 12.5514 9.91327 12.7399 9.67388C12.8899 9.48331 13.0355 9.29014 13.1786 9.09435C13.421 8.76314 13.6693 8.43668 13.9188 8.11076C13.9939 8.01254 14.0688 7.9142 14.1436 7.81581C14.1686 7.78302 14.1935 7.75022 14.2192 7.71644C14.2665 7.65429 14.3138 7.59214 14.3611 7.52998C14.4042 7.47334 14.4474 7.41675 14.4907 7.36022C14.5341 7.30342 14.5772 7.24642 14.6201 7.18925C14.6521 7.14713 14.6521 7.14713 14.6847 7.10417C14.7036 7.07912 14.7224 7.05407 14.7418 7.02826C14.8469 6.90687 14.9318 6.84024 15.0946 6.83995ZM15.0815 8.05064C15.033 8.09972 15.033 8.09972 14.9842 8.16559C14.9648 8.1907 14.9453 8.2158 14.9253 8.24167C14.9043 8.26927 14.8833 8.29687 14.8617 8.3253C14.8398 8.35376 14.8179 8.38222 14.7954 8.41154C14.6213 8.63882 14.4515 8.8691 14.2827 9.1003C14.1137 9.33105 13.9389 9.55689 13.761 9.78085C13.7416 9.80551 13.7221 9.83016 13.7021 9.85556C13.685 9.87708 13.6679 9.89861 13.6502 9.92078C13.6035 9.98616 13.5685 10.0522 13.5346 10.1249C13.5651 10.1266 13.5957 10.1283 13.6271 10.1301C13.6676 10.1327 13.7082 10.1353 13.7499 10.138C13.7899 10.1405 13.8298 10.1429 13.871 10.1455C13.9935 10.1602 14.0908 10.1776 14.2025 10.2303C14.2745 10.3661 14.2819 10.4835 14.2826 10.6355C14.283 10.6818 14.2834 10.7282 14.2838 10.776C14.2839 10.8272 14.284 10.8784 14.2841 10.9295C14.2844 10.9836 14.2848 11.0376 14.2851 11.0917C14.2861 11.2383 14.2866 11.3848 14.2871 11.5314C14.2876 11.6846 14.2886 11.8379 14.2895 11.9911C14.2911 12.2812 14.2924 12.5713 14.2936 12.8614C14.2949 13.1917 14.2967 13.522 14.2984 13.8523C14.3021 14.5317 14.3051 15.2111 14.308 15.8905C14.8301 15.8905 15.3522 15.8905 15.89 15.8905C15.8906 15.7288 15.8911 15.5672 15.8916 15.4006C15.8934 14.8668 15.8957 14.3331 15.8983 13.7993C15.8999 13.4756 15.9013 13.1519 15.9022 12.8283C15.903 12.5461 15.9042 12.264 15.9058 11.9818C15.9067 11.8325 15.9073 11.6831 15.9075 11.5338C15.9078 11.3931 15.9085 11.2524 15.9095 11.1117C15.9098 11.0602 15.91 11.0087 15.9099 10.9571C15.9095 10.4675 15.9095 10.4675 16.0307 10.2655C16.1615 10.1559 16.2785 10.1443 16.446 10.1358C16.5072 10.1324 16.5072 10.1324 16.5697 10.1288C16.6006 10.1275 16.6316 10.1262 16.6635 10.1249C16.5584 9.92892 16.4352 9.75992 16.2965 9.58653C16.1253 9.36946 15.9587 9.15002 15.7978 8.92516C15.6458 8.71335 15.4935 8.5019 15.3385 8.29234C15.3208 8.26796 15.303 8.24357 15.2847 8.21844C15.2421 8.16119 15.1971 8.10571 15.1518 8.05064C15.1286 8.05064 15.1054 8.05064 15.0815 8.05064Z" fill="white"/>
<path d="M9.00002 8.06848C9.02177 8.06812 9.04352 8.06776 9.06593 8.06738C9.32767 8.13282 9.46411 8.3576 9.61525 8.56287C9.63986 8.59572 9.66447 8.62858 9.68982 8.66243C9.76497 8.76299 9.83961 8.8639 9.91408 8.96497C9.93551 8.99401 9.95695 9.02305 9.97904 9.05298C10.0596 9.1622 10.14 9.27148 10.2203 9.38094C10.3736 9.58987 10.53 9.79628 10.6875 10.0021C10.8892 10.2656 11.0882 10.5307 11.2839 10.7987C11.3823 10.9333 11.4818 11.0668 11.5841 11.1985C11.6037 11.2239 11.6233 11.2493 11.6435 11.2754C11.6803 11.3229 11.7174 11.3702 11.7548 11.4172C11.8552 11.5474 11.9096 11.643 11.918 11.8126C11.8921 11.9625 11.8708 12.0367 11.7598 12.1422C11.6227 12.2313 11.5509 12.2387 11.3871 12.2379C11.3445 12.2378 11.3019 12.2377 11.258 12.2376C11.2133 12.2373 11.1686 12.237 11.1226 12.2367C11.0776 12.2365 11.0327 12.2364 10.9863 12.2362C10.875 12.2358 10.7637 12.2352 10.6524 12.2345C10.6526 12.2671 10.6526 12.2671 10.6529 12.3003C10.6567 12.8294 10.6596 13.3584 10.6615 13.8875C10.6624 14.1433 10.6636 14.3992 10.6656 14.655C10.6674 14.8781 10.6685 15.1011 10.6689 15.3241C10.6691 15.4422 10.6697 15.5602 10.6709 15.6783C10.6722 15.8102 10.6724 15.9421 10.6723 16.074C10.6733 16.1325 10.6733 16.1325 10.6742 16.1922C10.6723 16.4877 10.6723 16.4877 10.5676 16.6176C10.4262 16.7446 10.3261 16.7402 10.1435 16.7413C10.1163 16.7416 10.0892 16.7419 10.0613 16.7421C9.97141 16.743 9.8815 16.7436 9.79158 16.7441C9.74553 16.7444 9.74553 16.7444 9.69855 16.7447C9.53601 16.7456 9.37346 16.7463 9.21092 16.7468C9.04312 16.7474 8.87535 16.749 8.70756 16.7508C8.57848 16.7519 8.4494 16.7523 8.3203 16.7525C8.25846 16.7528 8.19662 16.7533 8.13478 16.7542C8.04809 16.7553 7.96147 16.7553 7.87478 16.755C7.84935 16.7556 7.82392 16.7562 7.79772 16.7568C7.59838 16.7543 7.51769 16.6949 7.38283 16.5587C7.33948 16.472 7.34335 16.4154 7.34345 16.3185C7.3434 16.2826 7.34335 16.2467 7.3433 16.2097C7.34349 16.1504 7.34349 16.1504 7.34368 16.0899C7.34368 16.0484 7.34367 16.0069 7.34367 15.9642C7.34369 15.8502 7.34386 15.7362 7.34411 15.6223C7.34433 15.5032 7.34435 15.3842 7.34439 15.2652C7.3445 15.0397 7.34479 14.8142 7.34514 14.5887C7.34553 14.332 7.34573 14.0754 7.3459 13.8187C7.34627 13.2906 7.34689 12.7626 7.34767 12.2345C7.32002 12.2352 7.29237 12.236 7.26389 12.2367C7.13801 12.2397 7.01214 12.2415 6.88625 12.2433C6.84274 12.2445 6.79924 12.2456 6.75441 12.2469C6.34934 12.2512 6.34934 12.2512 6.18752 12.0939C6.08246 11.9143 6.06748 11.802 6.1172 11.6017C6.17889 11.4933 6.25373 11.3967 6.33034 11.2985C6.35221 11.2696 6.37407 11.2408 6.3966 11.2111C6.46709 11.1183 6.53822 11.026 6.60939 10.9337C6.65627 10.8723 6.7031 10.8109 6.74988 10.7494C6.82057 10.6566 6.89129 10.5637 6.9622 10.471C7.11633 10.2694 7.26802 10.0662 7.41799 9.86145C7.61587 9.59135 7.81741 9.32424 8.02119 9.05856C8.1318 8.91424 8.24156 8.76952 8.34853 8.62247C8.3768 8.58383 8.3768 8.58383 8.40564 8.54442C8.44023 8.49699 8.47455 8.44935 8.50853 8.40148C8.63019 8.23523 8.77712 8.06477 9.00002 8.06848ZM8.96486 9.28137C8.91407 9.33334 8.91407 9.33334 8.86269 9.4025C8.83245 9.4415 8.83245 9.4415 8.80159 9.4813C8.7693 9.52373 8.7693 9.52373 8.73635 9.56702C8.71404 9.59601 8.69174 9.625 8.66876 9.65486C8.52897 9.83752 8.39336 10.0225 8.26125 10.2107C8.05493 10.503 7.83446 10.785 7.61664 11.0687C7.58792 11.1063 7.58792 11.1063 7.55861 11.1447C7.52876 11.1822 7.52876 11.1822 7.49831 11.2204C7.44644 11.2817 7.44644 11.2817 7.45314 11.3556C7.48115 11.3573 7.50916 11.359 7.53801 11.3608C7.95082 11.3899 7.95082 11.3899 8.08595 11.4611C8.14723 11.5831 8.16521 11.6838 8.16606 11.8195C8.16645 11.8555 8.16684 11.8915 8.16725 11.9287C8.16732 11.9678 8.1674 12.007 8.16748 12.0473C8.16783 12.0888 8.16818 12.1303 8.16855 12.1731C8.16945 12.2866 8.17004 12.4001 8.1705 12.5137C8.17105 12.6324 8.17199 12.7512 8.17289 12.8699C8.17453 13.0946 8.17582 13.3194 8.17699 13.5441C8.17833 13.8 8.18007 14.0559 8.18184 14.3119C8.18547 14.8381 8.18856 15.3644 8.19142 15.8907C8.71349 15.8907 9.23556 15.8907 9.77345 15.8907C9.77415 15.7672 9.77485 15.6437 9.77557 15.5165C9.77792 15.1086 9.78064 14.7007 9.78356 14.2928C9.78532 14.0454 9.78696 13.7981 9.78829 13.5508C9.78957 13.3121 9.79121 13.0734 9.79307 12.8348C9.79373 12.7437 9.79426 12.6526 9.79467 12.5615C9.79526 12.434 9.79628 12.3065 9.7974 12.179C9.79748 12.1413 9.79755 12.1036 9.79763 12.0647C9.8022 11.6581 9.8022 11.6581 9.94704 11.4852C10.0697 11.3848 10.1892 11.3825 10.3425 11.371C10.3807 11.368 10.419 11.3651 10.4583 11.362C10.4875 11.3599 10.5168 11.3578 10.5469 11.3556C10.5 11.2562 10.4471 11.1694 10.3818 11.0811C10.3627 11.0552 10.3436 11.0293 10.324 11.0026C10.3033 10.9748 10.2826 10.947 10.2612 10.9183C10.2396 10.8891 10.218 10.8599 10.1957 10.8298C10.0078 10.5768 9.81699 10.3261 9.62524 10.0761C9.5161 9.9335 9.4079 9.79049 9.30283 9.64488C9.27595 9.60765 9.27595 9.60765 9.24854 9.56966C9.21556 9.52369 9.18278 9.47758 9.15023 9.4313C9.11354 9.38009 9.07458 9.33052 9.03517 9.28137C9.01197 9.28137 8.98877 9.28137 8.96486 9.28137Z" fill="white"/>
<path d="M3.0227 9.31621C3.21214 9.41812 3.32025 9.55301 3.44457 9.72271C3.46423 9.74896 3.48388 9.77521 3.50413 9.80226C3.5667 9.88605 3.62874 9.97022 3.69066 10.0545C3.72035 10.0948 3.72035 10.0948 3.75063 10.1358C3.83102 10.2449 3.91137 10.354 3.99148 10.4633C4.14663 10.6746 4.30478 10.8835 4.4641 11.0916C4.68444 11.3796 4.90142 11.6698 5.11532 11.9627C5.20058 12.0792 5.28737 12.1944 5.37514 12.309C5.39771 12.3388 5.42027 12.3686 5.44352 12.3992C5.48652 12.4559 5.52986 12.5123 5.5736 12.5685C5.69996 12.7361 5.7697 12.8688 5.80004 13.0779C5.75609 13.219 5.70968 13.3391 5.5891 13.4295C5.47318 13.4681 5.38767 13.4687 5.26569 13.4681C5.20196 13.4679 5.20196 13.4679 5.13695 13.4677C5.07036 13.4673 5.07036 13.4673 5.00243 13.4668C4.93524 13.4666 4.93524 13.4666 4.86668 13.4664C4.75593 13.466 4.64517 13.4654 4.53441 13.4647C4.53481 13.5021 4.5352 13.5395 4.5356 13.578C4.53916 13.9308 4.5418 14.2836 4.54352 14.6363C4.54444 14.8177 4.54568 14.9991 4.54768 15.1804C4.54959 15.3555 4.55064 15.5305 4.55109 15.7056C4.55142 15.7724 4.55205 15.8391 4.553 15.9059C4.55428 15.9995 4.55445 16.093 4.55437 16.1866C4.55532 16.2279 4.55532 16.2279 4.55629 16.27C4.55495 16.4121 4.5404 16.4979 4.44967 16.6102C4.31011 16.7464 4.2119 16.7399 4.02551 16.741C3.9984 16.7412 3.9713 16.7415 3.94338 16.7418C3.85346 16.7427 3.76355 16.7433 3.67364 16.7438C3.62758 16.7441 3.62758 16.7441 3.5806 16.7444C3.41806 16.7453 3.25552 16.746 3.09297 16.7465C2.92518 16.7471 2.7574 16.7486 2.58962 16.7504C2.46053 16.7516 2.33145 16.752 2.20236 16.7522C2.14052 16.7525 2.07867 16.753 2.01684 16.7538C1.93015 16.755 1.84353 16.755 1.75683 16.7547C1.7314 16.7553 1.70597 16.7558 1.67977 16.7564C1.48044 16.754 1.39974 16.6946 1.26488 16.5584C1.2089 16.4464 1.22518 16.3255 1.22574 16.2026C1.22573 16.1731 1.22573 16.1436 1.22572 16.1132C1.22575 16.0154 1.22602 15.9176 1.22629 15.8198C1.22636 15.7522 1.22641 15.6845 1.22644 15.6168C1.22658 15.4384 1.22692 15.2601 1.22731 15.0817C1.22767 14.8998 1.22783 14.7179 1.22801 14.536C1.22839 14.1789 1.22899 13.8218 1.22973 13.4647C1.20189 13.4652 1.17406 13.4658 1.14538 13.4663C1.01896 13.4685 0.892539 13.4699 0.766104 13.4712C0.700404 13.4726 0.700404 13.4726 0.633376 13.4739C0.569986 13.4744 0.569986 13.4744 0.505316 13.475C0.46647 13.4755 0.427623 13.4761 0.387599 13.4766C0.236782 13.4598 0.145033 13.4021 0.0422425 13.2926C-0.0380838 13.1543 -0.0255403 13.0211 -0.000741541 12.867C0.0380625 12.7917 0.0380625 12.7917 0.0894837 12.7188C0.108656 12.6915 0.127829 12.6642 0.147582 12.636C0.254413 12.4903 0.363408 12.3464 0.473868 12.2034C0.660249 11.9606 0.844538 11.7165 1.02538 11.4695C1.2332 11.1861 1.44551 10.9063 1.65974 10.6277C1.77751 10.4743 1.8947 10.3204 2.01195 10.1666C2.03589 10.1352 2.05982 10.1039 2.08448 10.0716C2.18596 9.93865 2.28711 9.80555 2.38549 9.67025C2.39993 9.65048 2.41438 9.63071 2.42926 9.61035C2.46564 9.56032 2.50166 9.51003 2.53765 9.45972C2.66606 9.31093 2.83155 9.27608 3.0227 9.31621ZM2.88207 10.5115C2.64645 10.7687 2.44096 11.0508 2.23586 11.3324C2.04931 11.5881 1.8574 11.8395 1.66319 12.0894C1.53993 12.2495 1.43019 12.4073 1.3352 12.5857C1.3632 12.5871 1.39121 12.5884 1.42007 12.5897C1.80303 12.6135 1.80303 12.6135 1.96801 12.7264C2.08688 12.9047 2.07909 13.0831 2.0807 13.2922C2.08104 13.3204 2.08139 13.3485 2.08175 13.3775C2.08286 13.4701 2.08373 13.5628 2.0846 13.6554C2.08532 13.7198 2.08606 13.7842 2.08681 13.8485C2.08875 14.0177 2.09049 14.1869 2.09219 14.3561C2.09427 14.5592 2.09659 14.7623 2.09888 14.9654C2.10232 15.2738 2.10545 15.5821 2.10863 15.8904C2.6191 15.8904 3.12957 15.8904 3.65551 15.8904C3.65682 15.6856 3.65814 15.4808 3.65949 15.2697C3.66056 15.1396 3.66165 15.0095 3.66286 14.8794C3.66476 14.6731 3.66656 14.4668 3.66769 14.2605C3.66861 14.0941 3.67003 13.9277 3.67179 13.7613C3.67238 13.6979 3.67278 13.6346 3.673 13.5712C3.67334 13.4822 3.67433 13.3932 3.67546 13.3042C3.67539 13.2653 3.67539 13.2653 3.67531 13.2256C3.67865 13.039 3.71902 12.8969 3.79613 12.7264C3.9749 12.5843 4.20906 12.5961 4.42895 12.5857C4.38203 12.4863 4.32918 12.3996 4.26388 12.3112C4.24479 12.2853 4.2257 12.2594 4.20604 12.2328C4.18533 12.205 4.16463 12.1771 4.1433 12.1485C4.12167 12.1193 4.10004 12.0901 4.07775 12.0599C3.88991 11.807 3.69898 11.5564 3.50737 11.3062C3.34474 11.0936 3.1851 10.8791 3.02919 10.6615C2.99267 10.6109 2.95508 10.5611 2.91723 10.5115C2.90563 10.5115 2.89402 10.5115 2.88207 10.5115Z" fill="white"/>
<path d="M2.87462 4.20541C2.90417 4.20369 2.93371 4.20197 2.96416 4.2002C3.09693 4.22591 3.17857 4.29925 3.27013 4.39438C3.32187 4.4794 3.36488 4.55789 3.40608 4.64748C3.41749 4.67125 3.4289 4.69503 3.44065 4.71952C3.46445 4.76937 3.48802 4.81933 3.51135 4.86941C3.54716 4.94627 3.58366 5.02276 3.62032 5.09922C3.64343 5.14784 3.6665 5.19647 3.68953 5.24513C3.70584 5.27952 3.70584 5.27952 3.72248 5.3146C3.79747 5.47592 3.79747 5.47592 3.79747 5.55453C3.82295 5.55736 3.84843 5.56019 3.87468 5.5631C3.99251 5.57624 4.11032 5.58956 4.22813 5.60287C4.28823 5.60954 4.28823 5.60954 4.34953 5.61633C4.54795 5.63888 4.74599 5.66329 4.94348 5.69296C4.97657 5.6979 5.00965 5.70284 5.04374 5.70793C5.19131 5.74477 5.2936 5.81612 5.3795 5.94125C5.43722 6.09024 5.42531 6.19028 5.37538 6.34129C5.30941 6.48668 5.20912 6.57701 5.08946 6.67953C5.04823 6.71612 5.00703 6.75274 4.96587 6.7894C4.94618 6.80675 4.92648 6.82411 4.9062 6.84199C4.81887 6.92034 4.73737 7.0039 4.6566 7.08891C4.60606 7.13657 4.60606 7.13657 4.5006 7.19589C4.41437 7.29559 4.42064 7.32215 4.42809 7.45077C4.45836 7.69182 4.50742 7.93078 4.55778 8.16838C4.65726 8.65319 4.65726 8.65319 4.54454 8.8746C4.45584 8.97562 4.38805 9.02143 4.25685 9.04959C3.99308 9.06248 3.80498 8.94455 3.58214 8.81528C3.52701 8.78435 3.52701 8.78435 3.47076 8.75279C3.19068 8.59522 3.19068 8.59522 3.09122 8.52929C3.02306 8.4826 3.02306 8.4826 2.91856 8.43735C2.77111 8.47474 2.64644 8.53649 2.51509 8.61203C2.47992 8.63211 2.44476 8.65218 2.40852 8.67287C2.37236 8.69376 2.3362 8.71465 2.29894 8.73617C2.22672 8.77758 2.15448 8.81897 2.08223 8.86032C2.05043 8.87865 2.01864 8.89698 1.98588 8.91587C1.79327 9.02415 1.66409 9.06003 1.442 9.035C1.31833 8.98661 1.27667 8.94502 1.2025 8.83505C1.12094 8.60755 1.16019 8.40879 1.22667 8.18233C1.37751 7.6984 1.37751 7.6984 1.33214 7.21364C1.21228 7.04959 1.05498 6.93916 0.883982 6.83254C0.780852 6.76699 0.695198 6.69145 0.604843 6.60922C0.577924 6.58498 0.551005 6.56073 0.52327 6.53575C0.408335 6.41817 0.361003 6.31886 0.345703 6.15219C0.348746 6.04509 0.365528 5.96847 0.433345 5.88376C0.602191 5.73208 0.74227 5.69159 0.965195 5.66879C0.995737 5.6649 1.02628 5.661 1.05775 5.65698C1.15059 5.64531 1.24349 5.63486 1.33653 5.62485C1.4182 5.61602 1.49985 5.60717 1.58147 5.5979C1.65105 5.59015 1.72073 5.5833 1.79041 5.57651C1.91048 5.55222 1.93019 5.54116 2.0045 5.44907C2.04149 5.37747 2.07588 5.3045 2.1086 5.23085C2.12828 5.18729 2.14796 5.14374 2.16765 5.10018C2.19814 5.03196 2.22852 4.9637 2.2588 4.89538C2.28828 4.82909 2.31817 4.763 2.3481 4.69691C2.36565 4.65745 2.38321 4.61799 2.4013 4.57733C2.51563 4.36353 2.62082 4.21541 2.87462 4.20541ZM2.88341 5.69516C2.83636 5.78149 2.78951 5.86793 2.74278 5.95444C2.72937 5.979 2.71595 6.00356 2.70213 6.02887C2.62827 6.1537 2.62827 6.1537 2.60216 6.29282C2.33606 6.38292 2.07173 6.43154 1.79356 6.4686C1.81749 6.49253 1.84142 6.51645 1.86607 6.54111C1.88194 6.55706 1.8978 6.57301 1.91414 6.58945C1.95352 6.62863 1.9933 6.6674 2.03334 6.7059C2.055 6.72693 2.07667 6.74796 2.09898 6.76962C2.11942 6.78925 2.13986 6.80887 2.16092 6.82909C2.26356 6.94466 2.29697 7.04206 2.29289 7.19699C2.27684 7.3773 2.24549 7.5558 2.21544 7.73422C2.35298 7.69182 2.47124 7.64138 2.59557 7.56943C2.74388 7.49505 2.84694 7.466 3.01085 7.49527C3.15057 7.54215 3.27458 7.61391 3.40073 7.68932C3.47595 7.73994 3.47595 7.73994 3.55138 7.73422C3.54589 7.70195 3.54041 7.66969 3.53476 7.63644C3.4443 7.0661 3.4443 7.0661 3.56621 6.88759C3.68813 6.7422 3.82588 6.62237 3.97325 6.50375C3.97325 6.49215 3.97325 6.48055 3.97325 6.4686C3.92961 6.46261 3.88597 6.45663 3.841 6.45047C3.78328 6.44189 3.72555 6.43329 3.66783 6.42465C3.63912 6.4208 3.61041 6.41695 3.58083 6.41298C3.406 6.38608 3.28798 6.35834 3.16466 6.2225C3.11223 6.13468 3.07085 6.04398 3.03062 5.95004C3.01421 5.91327 3.01421 5.91327 2.99746 5.87575C2.97074 5.81574 2.94459 5.75547 2.91856 5.69516C2.90696 5.69516 2.89536 5.69516 2.88341 5.69516Z" fill="white"/>
<path d="M15.1624 1.2306C15.1884 1.23133 15.2144 1.23205 15.2411 1.2328C15.3845 1.28767 15.4615 1.38395 15.5382 1.51185C15.5686 1.59396 15.5967 1.67694 15.6232 1.76042C15.7649 2.24735 15.7649 2.24735 16.097 2.60321C16.4005 2.71982 16.7437 2.73276 17.0659 2.73448C17.2678 2.73582 17.3842 2.76605 17.5355 2.90053C17.6286 3.0225 17.6419 3.13554 17.634 3.28656C17.5943 3.44955 17.4856 3.5446 17.3663 3.65639C17.326 3.69812 17.2857 3.73987 17.2455 3.78163C17.1386 3.88703 17.0269 3.98576 16.9124 4.08279C16.8882 4.1045 16.8639 4.12621 16.839 4.14857C16.8198 4.16098 16.8006 4.17338 16.7808 4.18616C16.709 4.24003 16.6696 4.27933 16.628 4.35951C16.6265 4.52507 16.6635 4.67994 16.7005 4.84071C16.7187 4.92651 16.7367 5.01234 16.7545 5.0982C16.7632 5.13957 16.7719 5.18094 16.7809 5.22356C16.8628 5.6535 16.8628 5.6535 16.8016 5.85145C16.6928 5.99542 16.5907 6.06854 16.4127 6.10414C16.1427 6.06059 15.9118 5.90414 15.6772 5.76988C15.6459 5.75222 15.6147 5.73456 15.5826 5.71636C15.5199 5.68082 15.4576 5.6448 15.3955 5.60827C15.3665 5.59176 15.3375 5.57526 15.3076 5.55826C15.2818 5.54321 15.2559 5.52817 15.2293 5.51267C15.107 5.4684 15.0194 5.49948 14.9043 5.55258C14.8814 5.56578 14.8585 5.57899 14.8349 5.59259C14.8091 5.60728 14.7832 5.62197 14.7566 5.63711C14.7161 5.66055 14.7161 5.66055 14.6747 5.68446C14.6179 5.71637 14.5612 5.74823 14.5044 5.78004C14.4285 5.82275 14.3528 5.86552 14.2774 5.90899C14.0758 6.02464 13.9081 6.12084 13.6717 6.07365C13.5384 6.02075 13.4566 5.92685 13.3936 5.80092C13.3666 5.52154 13.4241 5.25553 13.4815 4.98353C13.4982 4.90355 13.5147 4.82354 13.531 4.74348C13.5383 4.70853 13.5457 4.67358 13.5533 4.63757C13.5908 4.43538 13.5908 4.43538 13.519 4.25268C13.4958 4.23178 13.4725 4.21089 13.4486 4.18936C13.41 4.15398 13.41 4.15398 13.3707 4.11788C13.3435 4.09393 13.3162 4.06998 13.2882 4.0453C13.249 4.00958 13.249 4.00958 13.2089 3.97313C13.1044 3.87832 12.9987 3.78504 12.8918 3.69288C12.8542 3.66047 12.8542 3.66047 12.8159 3.62741C12.7823 3.59874 12.7823 3.59874 12.748 3.5695C12.6403 3.46881 12.5878 3.37585 12.582 3.22751C12.5931 3.0509 12.6263 2.936 12.7608 2.81264C12.9001 2.74534 13.0332 2.72404 13.186 2.70469C13.2095 2.70167 13.2331 2.69865 13.2573 2.69554C13.3068 2.68923 13.3563 2.68303 13.4059 2.67694C13.4813 2.66764 13.5568 2.65798 13.6322 2.64825C14.0329 2.59756 14.0329 2.59756 14.2022 2.6017C14.2118 2.57166 14.2213 2.54162 14.2311 2.51067C14.2962 2.32237 14.3804 2.14286 14.4635 1.962C14.4842 1.91675 14.5046 1.87141 14.5249 1.82598C14.5545 1.75978 14.5846 1.69389 14.6149 1.62803C14.6327 1.58887 14.6505 1.54971 14.6688 1.50937C14.7848 1.31291 14.9341 1.21798 15.1624 1.2306ZM15.0811 2.74232C15.0629 2.7817 15.0446 2.82109 15.0258 2.86166C15.0011 2.91345 14.9763 2.96522 14.9515 3.01698C14.9396 3.04293 14.9276 3.06887 14.9153 3.0956C14.8414 3.24819 14.7886 3.34562 14.6241 3.41029C14.5216 3.4359 14.4187 3.4536 14.3143 3.46962C14.2866 3.47417 14.2589 3.47873 14.2303 3.48342C14.1624 3.49453 14.0944 3.50519 14.0265 3.51576C14.108 3.59748 14.1896 3.67915 14.272 3.76007C14.2925 3.78024 14.313 3.8004 14.3341 3.82118C14.3549 3.84162 14.3758 3.86206 14.3972 3.88312C14.535 4.03014 14.4894 4.24093 14.4835 4.42982C14.4747 4.54742 14.4628 4.66436 14.4483 4.78139C14.4802 4.76362 14.5121 4.74586 14.5449 4.72755C14.9751 4.49456 14.9751 4.49456 15.1737 4.5103C15.3338 4.55837 15.4751 4.64315 15.6182 4.72755C15.7059 4.78713 15.7059 4.78713 15.7843 4.78139C15.7792 4.75419 15.7741 4.727 15.7689 4.69899C15.6652 4.11732 15.6652 4.11732 15.7843 3.86732C15.831 3.84357 15.8779 3.82017 15.9249 3.79701C15.9934 3.73689 15.9934 3.73689 16.0567 3.66957C16.0783 3.64736 16.0999 3.62516 16.1221 3.60228C16.1382 3.58533 16.1544 3.56838 16.171 3.55092C16.0555 3.43543 15.882 3.44217 15.7244 3.42155C15.6042 3.40325 15.5221 3.38875 15.422 3.31718C15.3451 3.21056 15.2866 3.09801 15.2306 2.97963C15.2195 2.95679 15.2084 2.93395 15.1969 2.91041C15.1698 2.85451 15.143 2.79843 15.1163 2.74232C15.1047 2.74232 15.0931 2.74232 15.0811 2.74232Z" fill="white"/>
<path d="M9.05003 2.81492C9.07609 2.81677 9.10215 2.81863 9.129 2.82055C9.29056 2.87476 9.37337 2.99846 9.44844 3.14577C9.46767 3.19186 9.48656 3.23809 9.50514 3.28444C9.52678 3.33485 9.54848 3.38523 9.57024 3.43558C9.60377 3.51425 9.63681 3.59302 9.66874 3.67236C9.7802 3.97835 9.7802 3.97835 10.0019 4.19723C10.1037 4.21662 10.1968 4.21972 10.3003 4.21897C10.3716 4.22692 10.4428 4.23568 10.514 4.2452C10.6231 4.25759 10.7322 4.26963 10.8414 4.28111C11.2856 4.3324 11.2856 4.3324 11.456 4.49143C11.5121 4.6035 11.5265 4.69118 11.5307 4.81663C11.4641 5.01328 11.3751 5.13252 11.2253 5.27366C11.2066 5.29188 11.1878 5.3101 11.1685 5.32888C11.0458 5.44713 10.9202 5.56181 10.7894 5.67109C10.7672 5.69076 10.745 5.71042 10.7222 5.73069C10.6938 5.74868 10.6938 5.74868 10.6648 5.76704C10.592 5.82122 10.553 5.86042 10.5112 5.94163C10.5096 6.11158 10.5465 6.27077 10.5837 6.43601C10.5973 6.5028 10.5973 6.5028 10.6111 6.57094C10.6354 6.68955 10.661 6.80775 10.687 6.926C10.7284 7.12176 10.7586 7.27777 10.6628 7.46213C10.5504 7.59586 10.4705 7.65239 10.2981 7.68406C10.0279 7.64546 9.79977 7.49141 9.56941 7.35199C9.53992 7.33433 9.51043 7.31667 9.48005 7.29848C9.42117 7.26302 9.36263 7.227 9.30447 7.19038C9.27715 7.17388 9.24984 7.15738 9.22169 7.14037C9.1854 7.11781 9.1854 7.11781 9.14838 7.09479C9.00787 7.04442 8.89536 7.08474 8.76405 7.14605C8.73262 7.16434 8.70119 7.18264 8.66881 7.20148C8.63396 7.22151 8.59911 7.24154 8.5632 7.26218C8.52735 7.28321 8.49151 7.30424 8.45457 7.3259C7.82627 7.6897 7.82627 7.6897 7.59325 7.66428C7.44903 7.60056 7.35544 7.51986 7.27684 7.38303C7.24208 7.10674 7.30795 6.83452 7.36473 6.56565C7.38139 6.48567 7.39788 6.40565 7.41417 6.3256C7.42153 6.29065 7.4289 6.25569 7.43649 6.21968C7.47227 6.01612 7.47227 6.01612 7.40099 5.833C7.37742 5.81156 7.35385 5.79013 7.32957 5.76804C7.30374 5.74407 7.27791 5.72009 7.2513 5.69539C7.1565 5.61216 7.06143 5.52926 6.96593 5.44683C6.47683 5.01001 6.47683 5.01001 6.46289 4.81017C6.47702 4.66196 6.49021 4.58729 6.5847 4.46726C6.75504 4.33654 6.89847 4.30814 7.1104 4.28681C7.13829 4.28379 7.16618 4.28077 7.19492 4.27765C7.28373 4.26809 7.37257 4.25891 7.46141 4.24973C7.52175 4.2433 7.58208 4.23685 7.64241 4.23037C7.79006 4.21456 7.93773 4.1991 8.08543 4.18381C8.09512 4.15343 8.1048 4.12305 8.11478 4.09174C8.1832 3.89321 8.27293 3.70453 8.36009 3.51365C8.37842 3.47248 8.39675 3.4313 8.41564 3.38888C8.43379 3.34916 8.45194 3.30944 8.47064 3.26851C8.48695 3.23248 8.50325 3.19645 8.52005 3.15933C8.64081 2.94848 8.79831 2.79092 9.05003 2.81492ZM8.96434 4.32444C8.94608 4.36382 8.92781 4.4032 8.909 4.44378C8.88426 4.49556 8.85949 4.54734 8.8347 4.5991C8.82276 4.62504 8.81082 4.65099 8.79852 4.67772C8.72464 4.8303 8.67175 4.92774 8.50731 4.99241C8.40475 5.01802 8.30193 5.03571 8.19749 5.05173C8.16978 5.05629 8.14207 5.06084 8.11352 5.06553C8.04562 5.07665 7.97764 5.08731 7.90965 5.09788C7.99031 5.17895 8.07088 5.25989 8.15396 5.33848C8.17413 5.35769 8.19429 5.37691 8.21507 5.3967C8.24573 5.42553 8.24573 5.42553 8.27701 5.45493C8.36462 5.55909 8.40164 5.65098 8.40225 5.7874C8.39849 5.81872 8.39473 5.85003 8.39085 5.8823C8.38705 5.91574 8.38324 5.94919 8.37932 5.98365C8.37515 6.01619 8.37098 6.04873 8.36668 6.08225C8.36324 6.11116 8.3598 6.14008 8.35625 6.16987C8.34843 6.23446 8.34005 6.29899 8.33153 6.3635C8.45251 6.31751 8.56332 6.26343 8.6765 6.2009C8.83363 6.12372 8.96619 6.06865 9.14012 6.11741C9.26433 6.17651 9.38144 6.24023 9.5002 6.30967C9.58892 6.36919 9.58892 6.36919 9.66747 6.3635C9.66239 6.33042 9.65731 6.29734 9.65208 6.26325C9.6423 6.19758 9.6423 6.19758 9.63231 6.13059C9.62578 6.08736 9.61926 6.04412 9.61253 5.99958C9.57233 5.66427 9.57233 5.66427 9.68546 5.51C9.80051 5.37682 9.92741 5.25493 10.0542 5.13303C9.93907 5.01792 9.76493 5.02563 9.60759 5.00676C9.47456 4.98708 9.405 4.97502 9.30519 4.88062C9.23816 4.76911 9.17426 4.65717 9.11375 4.54197C9.09218 4.50114 9.07061 4.4603 9.04839 4.41823C9.03225 4.38728 9.01612 4.35633 8.9995 4.32444C8.9879 4.32444 8.97629 4.32444 8.96434 4.32444Z" fill="white"/>
</g>
<defs>
<clipPath id="clip0_6152_23352">
<rect width="18" height="18" fill="white"/>
</clipPath>
</defs>
</svg>
