<svg width="24" height="24" viewBox="0 0 24 24" fill="none" xmlns="http://www.w3.org/2000/svg">
<path d="M5.12505 3.07214C7.0986 2.81534 9.1102 2.68408 11.1522 2.68408C13.1943 2.68408 15.2059 2.81629 17.1794 3.07214C19.0075 3.30991 20.3095 4.84215 20.418 6.61693C20.1 6.511 19.7705 6.44362 19.4364 6.41624C16.7715 6.19503 14.0929 6.19503 11.4281 6.41624C9.18534 6.60266 7.58557 8.49918 7.58557 10.6335V14.7099C7.58468 15.4934 7.80031 16.2619 8.20866 16.9306C8.61702 17.5993 9.20221 18.1421 9.89963 18.4992L7.37633 21.0215C7.27657 21.1211 7.14952 21.189 7.01123 21.2164C6.87294 21.2439 6.72961 21.2298 6.59934 21.1759C6.46908 21.1219 6.35772 21.0306 6.27932 20.9134C6.20093 20.7962 6.15903 20.6584 6.15891 20.5174V16.6844C5.81384 16.6477 5.4692 16.6072 5.12505 16.5627C3.21522 16.3135 1.87891 14.6519 1.87891 12.7773V6.85756C1.87891 4.98387 3.21522 3.32038 5.12505 3.07214Z" fill="#309AAD"/>
<path d="M15.4317 7.67823C14.123 7.67823 12.8266 7.73244 11.5455 7.83896C10.0808 7.96071 9.01172 9.20286 9.01172 10.6352V14.7107C9.01172 16.1441 10.0846 17.3872 11.5512 17.507C12.7334 17.604 13.929 17.6563 15.135 17.6639L17.781 20.309C17.8807 20.4086 18.0078 20.4765 18.1461 20.5039C18.2844 20.5314 18.4277 20.5173 18.5579 20.4633C18.6882 20.4094 18.7996 20.3181 18.878 20.2009C18.9564 20.0837 18.9983 19.9459 18.9984 19.8049V17.5317L19.3123 17.507C20.7789 17.3881 21.8517 16.1441 21.8517 14.7107V10.6343C21.8517 9.20286 20.7817 7.96071 19.318 7.83801C18.0253 7.73112 16.7288 7.67781 15.4317 7.67823Z" fill="#309AAD"/>
</svg>
