<svg width="24" height="24" viewBox="0 0 24 24" fill="none" xmlns="http://www.w3.org/2000/svg">
<path d="M5.12505 2.98717C7.0986 2.73037 9.1102 2.59912 11.1522 2.59912C13.1943 2.59912 15.2059 2.73133 17.1794 2.98717C19.0075 3.22495 20.3095 4.75719 20.418 6.53197C20.1 6.42603 19.7705 6.35866 19.4364 6.33128C16.7715 6.11006 14.0929 6.11006 11.4281 6.33128C9.18534 6.5177 7.58557 8.41421 7.58557 10.5485V14.625C7.58468 15.4085 7.80031 16.177 8.20866 16.8457C8.61702 17.5143 9.20221 18.0572 9.89963 18.4142L7.37633 20.9365C7.27657 21.0362 7.14952 21.104 7.01123 21.1315C6.87294 21.159 6.72961 21.1448 6.59934 21.0909C6.46908 21.037 6.35772 20.9456 6.27932 20.8284C6.20093 20.7112 6.15903 20.5734 6.15891 20.4325V16.5995C5.81384 16.5628 5.4692 16.5222 5.12505 16.4777C3.21522 16.2285 1.87891 14.567 1.87891 12.6923V6.7726C1.87891 4.89891 3.21522 3.23541 5.12505 2.98717Z" fill="#01141F"/>
<path d="M15.4317 7.59326C14.123 7.59326 12.8266 7.64748 11.5455 7.754C10.0808 7.87574 9.01172 9.1179 9.01172 10.5503V14.6258C9.01172 16.0591 10.0846 17.3022 11.5512 17.422C12.7334 17.5191 13.929 17.5714 15.135 17.579L17.781 20.224C17.8807 20.3237 18.0078 20.3915 18.1461 20.419C18.2844 20.4464 18.4277 20.4323 18.5579 20.3784C18.6882 20.3244 18.7996 20.2331 18.878 20.1159C18.9564 19.9987 18.9983 19.8609 18.9984 19.7199V17.4468L19.3123 17.422C20.7789 17.3032 21.8517 16.0591 21.8517 14.6258V10.5493C21.8517 9.1179 20.7817 7.87574 19.318 7.75305C18.0253 7.64616 16.7288 7.59285 15.4317 7.59326Z" fill="#01141F"/>
</svg>
