<svg width="21" height="21" viewBox="0 0 21 21" fill="none" xmlns="http://www.w3.org/2000/svg">
<path d="M9.52585 10.3914C9.52585 10.8696 9.91357 11.2573 10.3918 11.2573C10.8701 11.2573 11.2578 10.8696 11.2578 10.3914C11.2578 9.9131 10.8701 9.52539 10.3918 9.52539C9.91357 9.52539 9.52585 9.9131 9.52585 10.3914Z" stroke="black" stroke-width="1.73196" stroke-linecap="round" stroke-linejoin="round"/>
<path d="M9.52585 16.4534C9.52585 16.9316 9.91357 17.3194 10.3918 17.3194C10.8701 17.3194 11.2578 16.9316 11.2578 16.4534C11.2578 15.9751 10.8701 15.5874 10.3918 15.5874C9.91357 15.5874 9.52585 15.9751 9.52585 16.4534Z" stroke="black" stroke-width="1.73196" stroke-linecap="round" stroke-linejoin="round"/>
<path d="M9.52585 4.32985C9.52585 4.80811 9.91357 5.19583 10.3918 5.19583C10.8701 5.19583 11.2578 4.80811 11.2578 4.32985C11.2578 3.85158 10.8701 3.46387 10.3918 3.46387C9.91357 3.46387 9.52585 3.85158 9.52585 4.32985Z" stroke="black" stroke-width="1.73196" stroke-linecap="round" stroke-linejoin="round"/>
</svg>
