<svg width="46" height="47" viewBox="0 0 46 47" fill="none" xmlns="http://www.w3.org/2000/svg">
<path d="M24.0608 34.5991C29.917 34.5991 34.7656 29.74 34.7656 23.8943C34.7656 18.0381 29.9275 13.1895 24.0713 13.1895C23.5151 13.1895 23.2422 13.5253 23.2422 14.071V18.1326C23.2422 18.5944 23.557 18.9512 24.0083 18.9512C24.4702 18.9512 24.7849 18.5944 24.7849 18.1326V14.05L24.0503 14.9736C29.0249 14.9736 32.971 18.9407 32.971 23.8943C32.971 28.8479 29.0145 32.8151 24.0608 32.8151C19.1072 32.8151 15.1296 28.8479 15.1401 23.8943C15.1506 21.6799 15.9377 19.6753 17.2601 18.1326C17.5749 17.7233 17.5959 17.23 17.2496 16.8627C16.9033 16.4954 16.326 16.5268 15.9377 16.9886C14.3425 18.8567 13.356 21.2811 13.356 23.8943C13.356 29.74 18.2151 34.5991 24.0608 34.5991Z" fill="black"/>
<path d="M25.74 25.4045C26.5692 24.5335 26.4012 23.3686 25.4042 22.6759L19.8524 18.7927C19.3276 18.4254 18.7819 18.9817 19.1492 19.4959L23.0219 25.0478C23.725 26.0448 24.89 26.2232 25.74 25.4045Z" fill="black"/>
<circle cx="22.8763" cy="22.7101" r="22.6239" fill="url(#paint0_linear_4322_19227)"/>
<defs>
<linearGradient id="paint0_linear_4322_19227" x1="22.8763" y1="0.0861816" x2="22.8763" y2="45.334" gradientUnits="userSpaceOnUse">
<stop stop-color="white" stop-opacity="0"/>
<stop offset="1" stop-color="white" stop-opacity="0.05"/>
</linearGradient>
</defs>
</svg>
